<svg id="Layer_1" data-name="Layer 1" xmlns="http://www.w3.org/2000/svg" xmlns:xlink="http://www.w3.org/1999/xlink" viewBox="0 0 279.64 332.55"><defs><style>.cls-1{fill:url(#radial-gradient);}.cls-2{fill:url(#linear-gradient);}.cls-3{fill:url(#linear-gradient-2);}.cls-4{fill:url(#linear-gradient-3);}.cls-5{fill:url(#linear-gradient-4);}</style><radialGradient id="radial-gradient" cx="396.26" cy="381.79" r="152" gradientUnits="userSpaceOnUse"><stop offset="0.03" stop-color="#fff"/><stop offset="0.34" stop-color="#1b75bc"/><stop offset="1" stop-color="#100846"/></radialGradient><linearGradient id="linear-gradient" x1="401.63" y1="77.91" x2="398.88" y2="487.86" gradientUnits="userSpaceOnUse"><stop offset="0.03" stop-color="#fff"/><stop offset="0.04" stop-color="#e3eef7"/><stop offset="0.06" stop-color="#b9d5eb"/><stop offset="0.09" stop-color="#93bedf"/><stop offset="0.12" stop-color="#73aad6"/><stop offset="0.15" stop-color="#5799ce"/><stop offset="0.18" stop-color="#418cc7"/><stop offset="0.22" stop-color="#3082c2"/><stop offset="0.27" stop-color="#247abf"/><stop offset="0.33" stop-color="#1d76bd"/><stop offset="0.51" stop-color="#1b75bc"/><stop offset="1" stop-color="#100846"/></linearGradient><linearGradient id="linear-gradient-2" x1="364.95" y1="366.32" x2="324.19" y2="140.04" gradientUnits="userSpaceOnUse"><stop offset="0.03" stop-color="#fff"/><stop offset="0.03" stop-color="#fcfdfe"/><stop offset="0.12" stop-color="#b8d4ea"/><stop offset="0.2" stop-color="#80b2da"/><stop offset="0.28" stop-color="#5598cd"/><stop offset="0.35" stop-color="#3585c4"/><stop offset="0.41" stop-color="#2279be"/><stop offset="0.45" stop-color="#1b75bc"/><stop offset="0.62" stop-color="#17498c"/><stop offset="0.79" stop-color="#132666"/><stop offset="0.92" stop-color="#11104f"/><stop offset="1" stop-color="#100846"/></linearGradient><linearGradient id="linear-gradient-3" x1="500.8" y1="341.85" x2="460.04" y2="115.57" xlink:href="#linear-gradient-2"/><linearGradient id="linear-gradient-4" x1="362.78" y1="366.72" x2="322.02" y2="140.39" xlink:href="#linear-gradient-2"/></defs><title>logo</title><path class="cls-1" d="M373.72,458.67V435.32c119.66,27.26,198-125.36,96.76-207.39V382.49A22.5,22.5,0,0,1,448,405H431.16V382.09c11.18-.17,16.47-2.26,16.47-15.8V332.75H352.39V452.8a140,140,0,0,1-92.21-131.48c0-87,79.2-153.92,166.12-137.34v23.34c-119.93-27.21-197.83,125.56-96.76,207.4V260.16A22.5,22.5,0,0,1,352,237.69h16.11s0,21.35,0,22.87c-11.05.24-15.71,2.87-15.71,15.8V309.9h95.24c0-25.48,0-27.57-.06-29.4h.06V189.84c97.07,35.64,123.22,159,50.79,230.71C466.07,452.6,420.66,467.48,373.72,458.67Z" transform="translate(-260.18 -181.45)"/><path class="cls-2" d="M377.93,455.13V440.49c121.82,22.7,198-132.56,95.2-215.83l-6.86-5.56V382.49A18.28,18.28,0,0,1,448,400.75H435.37V386.09c10.27-.93,16.47-5.27,16.47-19.8V328.54H348.18V446.63a135.66,135.66,0,0,1-83.79-125.31c0-82.88,74.24-147.59,157.7-133.81v14.65C300,179.45,224.21,334.84,326.89,418l6.86,5.55V260.16A18.29,18.29,0,0,1,352,241.89h11.9l0,14.7c-9.8,1-15.71,5.38-15.71,19.77V314.1H451.84V196c90,37.58,112.07,153.74,43.62,221.55A134.61,134.61,0,0,1,377.93,455.13Z" transform="translate(-260.18 -181.45)"/><path class="cls-3" d="M333.75,260.16v51.56c4.8-1.05,9.62-2,14.43-3V276.36c0-14.39,5.91-18.76,15.71-19.77l0-14.7H352A18.29,18.29,0,0,0,333.75,260.16Z" transform="translate(-260.18 -181.45)"/><path class="cls-4" d="M451.85,293q7.2-.84,14.42-1.6V219.1c21,17,39.83,35.21,49.72,67.44,9.4-.84,12.94-1.15,14.78-1.3A136.22,136.22,0,0,0,451.84,196Z" transform="translate(-260.18 -181.45)"/><path class="cls-5" d="M279,326.15c-3.11-77.65,66.65-138.22,143.13-124V187.51c-86.85-14.34-163.37,56.25-157.36,143.29Q271.81,328.37,279,326.15Z" transform="translate(-260.18 -181.45)"/><text x="-260.18" y="-181.45"/></svg>